HIERARCHY
ROOT SpineBase
{
  OFFSET 0.000000 0.000000 0.000000
  CHANNELS 6 Xposition Yposition Zposition Zrotation Xrotation Yrotation
  JOINT SpineMid
  {
    OFFSET 0.000000 28.559290 0.000000
    CHANNELS 3 Zrotation Xrotation Yrotation
    JOINT SpineShoulder
    {
      OFFSET 0.207401 21.356314 -0.706730
      CHANNELS 3 Zrotation Xrotation Yrotation
      JOINT Neck
      {
        OFFSET 0.125928 7.114750 -0.531857
        CHANNELS 3 Zrotation Xrotation Yrotation
        JOINT Head
        {
          OFFSET -7.005890 11.329063 -2.163650
          CHANNELS 3 Zrotation Xrotation Yrotation
          End Site
          {
            OFFSET 0 0 0
          }
        }
      }
      JOINT ShoulderLeft
      {
        OFFSET -13.636235 -5.475384 8.163412
        CHANNELS 3 Zrotation Xrotation Yrotation
        JOINT ElbowLeft
        {
          OFFSET -2.839911 -25.453578 6.004998
          CHANNELS 3 Zrotation Xrotation Yrotation
          JOINT WristLeft
          {
            OFFSET -0.282849 -21.593367 -3.890153
            CHANNELS 3 Zrotation Xrotation Yrotation
            JOINT HandLeft
            {
              OFFSET -0.395188 -2.430665 0.654307
              CHANNELS 3 Zrotation Xrotation Yrotation
              JOINT HandTipLeft
              {
                OFFSET 0.817912 -3.842250 -1.120704
                CHANNELS 3 Zrotation Xrotation Yrotation
                End Site
                {
                  OFFSET 0 0 0
                }
              }
              JOINT ThumbLeft
              {
                OFFSET -1.212573 0.241123 -1.168312
                CHANNELS 3 Zrotation Xrotation Yrotation
                End Site
                {
                  OFFSET 0 0 0
                }
              }
            }
          }
        }
      }
      JOINT ShoulderRight
      {
        OFFSET 12.392753 -1.527624 -8.878142
        CHANNELS 3 Zrotation Xrotation Yrotation
        JOINT ElbowRight
        {
          OFFSET 7.404658 -22.052468 -2.445255
          CHANNELS 3 Zrotation Xrotation Yrotation
          JOINT WristRight
          {
            OFFSET -3.059896 -21.293131 -3.508986
            CHANNELS 3 Zrotation Xrotation Yrotation
            JOINT HandRight
            {
              OFFSET -2.311543 -5.935051 -0.078347
              CHANNELS 3 Zrotation Xrotation Yrotation
              JOINT HandTipRight
              {
                OFFSET -0.884142 -6.309552 -0.381479
                CHANNELS 3 Zrotation Xrotation Yrotation
                End Site
                {
                  OFFSET 0 0 0
                }
              }
              JOINT ThumbRight
              {
                OFFSET 2.852043 -0.577693 -0.628064
                CHANNELS 3 Zrotation Xrotation Yrotation
                End Site
                {
                  OFFSET 0 0 0
                }
              }
            }
          }
        }
      }
    }
  }
  JOINT HipLeft
  {
    OFFSET -5.062684 -0.285549 -0.035645
    CHANNELS 3 Zrotation Xrotation Yrotation
    JOINT KneeLeft
    {
      OFFSET -0.259501 -27.297930 9.779890
      CHANNELS 3 Zrotation Xrotation Yrotation
      JOINT AnkleLeft
      {
        OFFSET 4.382220 -32.415609 10.620938
        CHANNELS 3 Zrotation Xrotation Yrotation
        JOINT FootLeft
        {
          OFFSET -3.535754 -6.548759 -1.257669
          CHANNELS 3 Zrotation Xrotation Yrotation
          End Site
          {
            OFFSET 0 0 0
          }
        }
      }
    }
  }
  JOINT HipRight
  {
    OFFSET 6.312310 2.578235 -6.164506
    CHANNELS 3 Zrotation Xrotation Yrotation
    JOINT KneeRight
    {
      OFFSET 7.494272 -25.440921 -0.833259
      CHANNELS 3 Zrotation Xrotation Yrotation
      JOINT AnkleRight
      {
        OFFSET 7.701300 -34.627691 3.580935
        CHANNELS 3 Zrotation Xrotation Yrotation
        JOINT FootRight
        {
          OFFSET -1.203622 -7.227542 -4.865711
          CHANNELS 3 Zrotation Xrotation Yrotation
          End Site
          {
            OFFSET 0 0 0
          }
        }
      }
    }
  }
}
MOTION
Frames: 10
Frame Time: 0.033333
-65.977463 70.014172 331.437105 -0.000000 0.000000 28.315842 -0.000000 0.000000 -28.315842 -0.000000 0.000000 0.000000 -0.000000 0.000000 0.000000 0.000000 0.000000 0.000000 -0.000000 0.000000 0.000000 -0.000000 0.000000 0.000000 -0.000000 0.000000 0.000000 -0.000000 0.000000 0.000000 0.000000 0.000000 0.000000 0.000000 0.000000 0.000000 -0.000000 0.000000 0.000000 -0.000000 0.000000 0.000000 -0.000000 0.000000 0.000000 -0.000000 0.000000 0.000000 0.000000 0.000000 0.000000 0.000000 0.000000 0.000000 -0.000000 0.000000 -28.315842 -0.000000 0.000000 0.000000 -0.000000 0.000000 0.000000 0.000000 0.000000 0.000000 -0.000000 0.000000 -28.315842 -0.000000 0.000000 0.000000 -0.000000 0.000000 0.000000 0.000000 0.000000 0.000000
-65.938948 70.027194 331.408754 0.049177 0.042977 28.281657 -0.063670 -0.014546 -28.281683 -0.000000 0.000000 0.000000 -0.000000 0.000000 0.000000 0.000000 0.000000 0.000000 -0.000000 0.000000 0.000000 -0.979318 -1.103522 0.181752 9.053861 8.383422 0.114675 -15.372981 -16.625453 -3.109034 0.000000 0.000000 0.000000 0.000000 0.000000 0.000000 -0.000000 0.000000 0.000000 -0.000000 0.000000 0.000000 1.923196 -0.182646 0.049134 0.321279 -0.375990 -0.096859 0.000000 0.000000 0.000000 0.000000 0.000000 0.000000 -0.063670 -0.014546 -28.281683 -0.000000 0.000000 0.000000 0.704940 0.465082 -0.390340 0.000000 0.000000 0.000000 -0.063670 -0.014546 -28.281683 -0.000000 0.000000 0.000000 -0.000000 0.000000 0.000000 0.000000 0.000000 0.000000
-65.918103 70.040055 331.387562 0.097380 0.070673 28.264128 -0.119236 -0.016134 -28.264204 -0.000000 0.000000 0.000000 -0.000000 0.000000 0.000000 0.000000 0.000000 0.000000 -0.000000 0.000000 0.000000 -1.709125 -2.012841 0.305178 14.447165 13.364027 -0.550727 -28.077188 -28.607030 -8.352618 0.000000 0.000000 0.000000 0.000000 0.000000 0.000000 -0.000000 0.000000 0.000000 -0.000000 0.000000 0.000000 3.203368 -0.347049 0.103707 0.860527 -0.584026 -0.192015 0.000000 0.000000 0.000000 0.000000 0.000000 0.000000 -0.119236 -0.016134 -28.264204 -0.000000 0.000000 0.000000 1.207766 0.801694 -0.676189 0.000000 0.000000 0.000000 -0.119236 -0.016134 -28.264204 -0.000000 0.000000 0.000000 -0.000000 0.000000 0.000000 0.000000 0.000000 0.000000
-65.914929 70.052752 331.373528 0.144597 0.083069 28.263094 -0.166693 -0.004696 -28.263205 -0.000000 0.000000 0.000000 -1.045755 0.191278 -0.080172 0.000000 0.000000 0.000000 -0.000000 0.000000 0.000000 -2.185124 -2.719843 0.378987 17.789869 16.487494 -1.271376 -38.131757 -36.400063 -14.026343 0.000000 0.000000 0.000000 0.000000 0.000000 0.000000 -0.000000 0.000000 0.000000 -0.000000 0.000000 0.000000 3.994653 -0.504905 0.163737 1.429129 -0.601132 -0.298869 0.000000 0.000000 0.000000 0.000000 0.000000 0.000000 -0.166693 -0.004696 -28.263205 -0.000000 0.000000 0.000000 1.509249 1.014446 -0.855566 0.000000 0.000000 0.000000 -0.166693 -0.004696 -28.263205 -0.000000 0.000000 0.000000 -0.000000 0.000000 0.000000 0.000000 0.000000 0.000000
-65.929425 70.065287 331.366652 0.190818 0.080151 28.278510 -0.206017 0.019816 -28.278608 -0.000000 0.000000 0.000000 -1.201305 0.319004 -0.029023 0.000000 0.000000 0.000000 -0.000000 0.000000 0.000000 -2.404882 -3.219441 0.409865 19.744677 18.469822 -1.842878 -43.967915 -40.549368 -18.070724 0.000000 0.000000 0.000000 0.000000 0.000000 0.000000 -0.000000 0.000000 0.000000 -0.000000 0.000000 0.000000 4.378437 -0.665769 0.230374 1.921828 -0.410324 -0.427005 0.000000 0.000000 0.000000 0.000000 0.000000 0.000000 -0.206017 0.019816 -28.278608 -0.000000 0.000000 0.000000 1.609958 1.106281 -0.927361 0.000000 0.000000 0.000000 -0.206017 0.019816 -28.278608 -0.000000 0.000000 0.000000 -0.000000 0.000000 0.000000 0.000000 0.000000 0.000000
-65.961592 70.077660 331.366934 0.236033 0.061911 28.310448 -0.237163 0.057432 -28.310457 -0.000000 0.000000 0.000000 -1.259725 0.477848 0.060622 0.000000 0.000000 0.000000 -0.000000 0.000000 0.000000 -2.367565 -3.508982 0.402144 20.585915 19.641385 -2.195373 -43.768793 -41.509431 -18.647578 0.000000 0.000000 0.000000 0.000000 0.000000 0.000000 -0.000000 0.000000 0.000000 -0.000000 0.000000 0.000000 4.386165 -0.838990 0.305558 2.292395 0.002119 -0.581679 0.000000 0.000000 0.000000 0.000000 0.000000 0.000000 -0.237163 0.057432 -28.310457 -0.000000 0.000000 0.000000 1.510088 1.078363 -0.891187 0.000000 0.000000 0.000000 -0.237163 0.057432 -28.310457 -0.000000 0.000000 0.000000 -0.000000 0.000000 0.000000 0.000000 0.000000 0.000000
-65.981342 70.080163 331.373029 0.320855 0.035322 28.328516 -0.299192 0.121162 -28.328299 -0.000000 0.000000 0.000000 -1.426528 0.658461 0.144207 0.000000 0.000000 0.000000 -0.000000 0.000000 0.000000 -1.839223 -3.340524 0.323136 19.522685 19.204126 -1.943675 -25.978233 -33.755082 -10.507425 0.000000 0.000000 0.000000 0.000000 0.000000 0.000000 -0.000000 0.000000 0.000000 -0.000000 0.000000 0.000000 3.780628 -0.914012 0.340646 2.404847 1.143583 -0.803193 0.000000 0.000000 0.000000 0.000000 0.000000 0.000000 -0.299192 0.121162 -28.328299 -0.000000 0.000000 0.000000 1.227105 0.805959 -0.682472 0.000000 0.000000 0.000000 -0.299192 0.121162 -28.328299 -0.000000 0.000000 0.000000 -0.000000 0.000000 0.000000 0.000000 0.000000 0.000000
-66.059002 70.096515 331.383678 0.353696 -0.013661 28.384587 -0.304680 0.180160 -28.384066 0.825072 0.052806 0.060374 -2.107548 0.791149 0.224949 0.000000 0.000000 0.000000 -0.825128 -0.051931 -0.061128 -1.281980 -3.048893 0.237898 18.583133 18.842033 -1.706499 -15.649870 -25.363250 -6.530005 0.000000 0.000000 0.000000 0.000000 0.000000 0.000000 -0.825128 -0.051931 -0.061128 0.844099 -0.630184 -0.043989 2.123299 -0.213844 0.335730 2.068987 0.870827 -0.658615 0.000000 0.000000 0.000000 0.000000 0.000000 0.000000 -0.304680 0.180160 -28.384066 -0.000000 0.000000 0.000000 -0.000000 0.000000 0.000000 0.000000 0.000000 0.000000 -0.304680 0.180160 -28.384066 -0.000000 0.000000 0.000000 -0.381067 0.928100 0.104439 0.000000 0.000000 0.000000
-66.144466 70.120564 331.372260 0.365232 -0.025036 28.510789 -0.308991 0.196333 -28.510180 0.819874 0.086266 0.059157 -1.732787 0.934601 0.405116 0.000000 0.000000 0.000000 -0.800804 1.000443 -0.177709 -0.563182 -4.017206 0.231182 15.060109 16.302110 -0.950667 -9.036227 -17.719965 -4.424569 0.000000 0.000000 0.000000 0.000000 0.000000 0.000000 -0.819963 -0.085411 -0.060385 1.504073 -0.695810 -0.139153 0.421347 -0.667540 0.666537 2.793132 1.069615 -0.835873 0.000000 0.000000 0.000000 0.000000 0.000000 0.000000 -0.308991 0.196333 -28.510180 -0.000000 0.000000 0.000000 -0.000000 0.000000 0.000000 0.000000 0.000000 0.000000 -0.308991 0.196333 -28.510180 -0.000000 0.000000 0.000000 -0.549566 0.980470 0.210021 0.000000 0.000000 0.000000
-66.300059 70.148710 331.405026 0.345950 -0.104263 28.585207 -0.253897 0.257077 -28.584322 -0.000000 0.000000 0.000000 -0.475300 1.271712 0.704250 0.000000 0.000000 0.000000 0.208186 1.563761 -0.128649 -0.010945 -4.537070 0.138632 10.276782 15.691614 -1.030600 0.021173 -10.330628 -2.164287 0.000000 0.000000 0.000000 0.000000 0.000000 0.000000 -0.628259 0.527742 0.250093 2.581774 -1.454195 -0.402418 -0.398834 -0.872027 0.886197 3.331909 1.120871 -0.988240 0.000000 0.000000 0.000000 0.000000 0.000000 0.000000 -0.253897 0.257077 -28.584322 -0.000000 0.000000 0.000000 -1.376049 -0.583750 0.569306 0.000000 0.000000 0.000000 -0.253897 0.257077 -28.584322 -0.000000 0.000000 0.000000 -0.781010 0.993778 0.364528 0.000000 0.000000 0.000000
